<svg id="Calque_1" data-name="Calque 1" xmlns="http://www.w3.org/2000/svg" viewBox="0 0 512 512"><defs><style>.cls-1{fill:#3b302f;}</style></defs><path class="cls-1" d="M412.52,0h-313C44.76,0,0,44.77,0,99.49v313C0,467.23,44.76,512,99.48,512h313c54.72,0,99.49-44.77,99.49-99.47v-313C512,44.77,467.24,0,412.52,0ZM333.84,208.49V114h34.92v90c0,59.54-37.86,96.65-96.29,96.65v-33.8C309.22,266.92,333.84,244.5,333.84,208.49ZM120.2,137.09h90c59.53,0,96.65,37.85,96.65,96.28h-33.8c0-36.75-22.43-61.37-58.43-61.37H120.2Zm53,166.42V398H138.32v-90c0-59.54,37.85-96.65,96.28-96.65v33.8C197.85,245.08,173.23,267.5,173.23,303.51ZM391.8,365.06h-90c-59.53,0-96.65-37.85-96.65-96.27h33.8c0,36.74,22.43,61.37,58.45,61.37H391.8Z"/></svg>